<svg xmlns="http://www.w3.org/2000/svg" xmlns:xlink="http://www.w3.org/1999/xlink" width="500" zoomAndPan="magnify" viewBox="0 0 375 374.999991" height="500" preserveAspectRatio="xMidYMid meet" version="1.0"><defs><g/><clipPath id="a8fcd42022"><path d="M 165 78.414062 L 232 78.414062 L 232 138 L 165 138 Z M 165 78.414062 " clip-rule="nonzero"/></clipPath><clipPath id="cc2a859445"><path d="M 144 144 L 210 144 L 210 203.664062 L 144 203.664062 Z M 144 144 " clip-rule="nonzero"/></clipPath><clipPath id="36685902e4"><path d="M 191 118 L 250.308594 118 L 250.308594 185 L 191 185 Z M 191 118 " clip-rule="nonzero"/></clipPath><clipPath id="670155d5a3"><path d="M 125.058594 97 L 185 97 L 185 164 L 125.058594 164 Z M 125.058594 97 " clip-rule="nonzero"/></clipPath></defs><rect x="-37.5" width="450" fill="#ffffff" y="-37.499999" height="449.999989" fill-opacity="1"/><rect x="-37.5" width="450" fill="#011b22" y="-37.499999" height="449.999989" fill-opacity="1"/><g clip-path="url(#a8fcd42022)"><path fill="#c9caca" d="M 195.144531 115.121094 L 206.4375 114.917969 C 210.472656 114.917969 212.691406 114.113281 212.691406 108.667969 L 212.488281 103.222656 C 212.488281 99.390625 211.28125 97.171875 207.246094 97.171875 L 204.019531 97.171875 C 200.390625 97.171875 199.582031 98.582031 199.785156 101.605469 L 199.785156 107.054688 C 199.785156 108.867188 198.371094 110.480469 196.355469 110.480469 L 189.496094 110.683594 C 187.683594 110.683594 186.070312 109.273438 186.070312 107.253906 L 186.070312 102.210938 C 186.070312 97.574219 182.4375 97.976562 179.210938 97.976562 L 170.941406 98.179688 C 168.320312 98.179688 166.101562 96.160156 165.898438 93.339844 L 165.699219 83.457031 C 165.699219 80.832031 167.714844 78.613281 170.539062 78.414062 L 180.421875 78.210938 C 183.042969 78.210938 185.261719 80.226562 185.464844 83.050781 L 185.664062 91.121094 C 185.664062 94.75 186.472656 96.765625 191.109375 96.765625 L 193.734375 96.765625 C 196.960938 96.765625 198.976562 95.757812 198.976562 91.925781 L 198.976562 86.882812 C 198.976562 85.070312 200.390625 83.457031 202.40625 83.457031 L 209.464844 83.253906 C 211.28125 83.253906 212.894531 84.664062 212.894531 86.683594 L 212.894531 91.320312 C 212.894531 95.757812 215.3125 96.96875 219.75 96.765625 L 226.207031 96.566406 C 228.625 96.566406 230.84375 98.582031 230.84375 101.003906 L 231.046875 110.28125 C 231.046875 112.699219 229.027344 114.917969 226.609375 114.917969 L 219.550781 115.121094 C 214.304688 115.121094 213.296875 117.136719 213.296875 121.574219 L 213.5 132.871094 C 213.5 135.289062 211.683594 137.304688 209.0625 137.304688 L 195.347656 137.507812 C 192.925781 137.507812 190.910156 135.691406 190.910156 133.070312 L 190.707031 119.355469 C 190.707031 116.9375 192.523438 114.917969 195.144531 114.917969 Z M 195.144531 115.121094 " fill-opacity="1" fill-rule="evenodd"/></g><g clip-path="url(#cc2a859445)"><path fill="#c9caca" d="M 180.21875 166.957031 L 168.925781 167.15625 C 164.890625 167.15625 162.671875 167.964844 162.671875 173.410156 L 162.875 178.855469 C 162.875 182.6875 164.085938 184.90625 168.117188 184.90625 L 171.34375 184.90625 C 174.976562 184.90625 175.78125 183.492188 175.582031 180.46875 L 175.378906 175.023438 C 175.378906 173.207031 176.789062 171.59375 178.808594 171.59375 L 185.664062 171.390625 C 187.480469 171.390625 189.09375 172.804688 189.09375 174.820312 L 189.09375 179.863281 C 189.09375 184.503906 192.722656 184.097656 195.953125 184.097656 L 204.222656 183.898438 C 206.84375 183.898438 209.0625 185.914062 209.261719 188.738281 L 209.464844 198.621094 C 209.464844 201.242188 207.449219 203.460938 204.625 203.664062 L 194.742188 203.863281 C 192.121094 203.863281 189.902344 201.847656 189.699219 199.023438 L 189.496094 190.957031 C 189.496094 187.324219 188.691406 185.308594 184.050781 185.308594 L 181.429688 185.308594 C 178.203125 185.308594 176.1875 186.316406 176.1875 190.148438 L 176.1875 195.191406 C 176.1875 197.007812 174.773438 198.621094 172.757812 198.621094 L 165.699219 198.824219 C 163.882812 198.824219 162.269531 197.410156 162.269531 195.394531 L 162.269531 190.753906 C 162.269531 186.316406 159.847656 185.105469 155.410156 185.308594 L 148.957031 185.511719 C 146.539062 185.511719 144.320312 183.492188 144.320312 181.074219 L 144.117188 171.796875 C 144.117188 169.375 146.132812 167.15625 148.554688 167.15625 L 155.613281 166.957031 C 160.855469 166.957031 161.867188 164.9375 161.867188 160.5 L 161.664062 149.207031 C 161.664062 146.785156 163.480469 144.769531 166.101562 144.769531 L 179.816406 144.566406 C 182.238281 144.566406 184.253906 146.382812 184.253906 149.003906 L 184.457031 162.71875 C 184.457031 165.140625 182.640625 167.15625 180.019531 167.15625 Z M 180.21875 166.957031 " fill-opacity="1" fill-rule="evenodd"/></g><g clip-path="url(#36685902e4)"><path fill="#00b0dc" d="M 213.5 148.199219 L 213.699219 159.492188 C 213.699219 163.527344 214.507812 165.746094 219.953125 165.746094 L 225.398438 165.542969 C 229.230469 165.542969 231.449219 164.332031 231.449219 160.300781 L 231.449219 157.070312 C 231.449219 153.441406 230.039062 152.636719 227.011719 152.835938 L 221.566406 153.039062 C 219.75 153.039062 218.136719 151.625 218.136719 149.609375 L 217.9375 142.753906 C 217.9375 140.9375 219.347656 139.324219 221.363281 139.324219 L 226.40625 139.324219 C 231.046875 139.324219 230.640625 135.691406 230.640625 132.464844 L 230.441406 124.195312 C 230.441406 121.574219 232.457031 119.355469 235.28125 119.15625 L 245.164062 118.953125 C 247.785156 118.953125 250.003906 120.96875 250.207031 123.792969 L 250.40625 133.675781 C 250.40625 136.296875 248.390625 138.515625 245.566406 138.71875 L 237.5 138.921875 C 233.871094 138.921875 231.851562 139.726562 231.851562 144.367188 L 231.851562 146.988281 C 231.851562 150.214844 232.859375 152.230469 236.691406 152.230469 L 241.734375 152.230469 C 243.550781 152.230469 245.164062 153.644531 245.164062 155.660156 L 245.367188 162.71875 C 245.367188 164.535156 243.953125 166.148438 241.9375 166.148438 L 237.296875 166.148438 C 232.859375 166.148438 231.652344 168.570312 231.851562 173.003906 L 232.054688 179.460938 C 232.054688 181.878906 230.039062 184.097656 227.617188 184.097656 L 218.339844 184.300781 C 215.917969 184.300781 213.699219 182.285156 213.699219 179.863281 L 213.5 172.804688 C 213.5 167.558594 211.480469 166.550781 207.042969 166.550781 L 195.75 166.753906 C 193.328125 166.753906 191.3125 164.9375 191.3125 162.316406 L 191.109375 148.601562 C 191.109375 146.179688 192.925781 144.164062 195.546875 144.164062 L 209.261719 143.960938 C 211.683594 143.960938 213.699219 145.777344 213.699219 148.398438 Z M 213.5 148.199219 " fill-opacity="1" fill-rule="evenodd"/></g><g clip-path="url(#670155d5a3)"><path fill="#00b0dc" d="M 161.867188 133.878906 L 161.664062 122.582031 C 161.664062 118.550781 160.855469 116.332031 155.410156 116.332031 L 149.964844 116.53125 C 146.132812 116.53125 143.914062 117.742188 143.914062 121.777344 L 143.914062 125.003906 C 143.914062 128.632812 145.328125 129.441406 148.351562 129.238281 L 153.796875 129.039062 C 155.613281 129.039062 157.226562 130.449219 157.226562 132.464844 L 157.429688 139.324219 C 157.429688 141.140625 156.015625 142.753906 154 142.753906 L 148.957031 142.753906 C 144.320312 142.753906 144.722656 146.382812 144.722656 149.609375 L 144.921875 157.878906 C 144.921875 160.5 142.90625 162.71875 140.082031 162.921875 L 130.199219 163.121094 C 127.578125 163.121094 125.359375 161.105469 125.15625 158.28125 L 124.957031 148.398438 C 124.957031 145.777344 126.972656 143.558594 129.796875 143.355469 L 137.863281 143.15625 C 141.496094 143.15625 143.511719 142.347656 143.511719 137.710938 L 143.511719 135.089844 C 143.511719 131.859375 142.503906 129.84375 138.671875 129.84375 L 133.628906 129.84375 C 131.8125 129.84375 130.199219 128.433594 130.199219 126.414062 L 130 119.355469 C 130 117.539062 131.410156 115.925781 133.425781 115.925781 L 138.066406 115.925781 C 142.503906 115.925781 143.714844 113.507812 143.511719 109.070312 L 143.308594 102.617188 C 143.308594 100.195312 145.328125 97.976562 147.746094 97.976562 L 157.023438 97.773438 C 159.445312 97.773438 161.664062 99.792969 161.664062 102.210938 L 161.867188 109.273438 C 161.867188 114.515625 163.882812 115.523438 168.320312 115.523438 L 179.613281 115.324219 C 182.035156 115.324219 184.050781 117.136719 184.050781 119.757812 L 184.253906 133.472656 C 184.253906 135.894531 182.4375 137.910156 179.816406 137.910156 L 166.101562 138.113281 C 163.679688 138.113281 161.664062 136.296875 161.664062 133.675781 Z M 161.867188 133.878906 " fill-opacity="1" fill-rule="evenodd"/></g><g fill="#c9caca" fill-opacity="1"><g transform="translate(118.667012, 253.889559)"><g><path d="M 18.875 -8.46875 L 9.40625 -8.46875 L 6.59375 0 L 0.609375 0 L 10.765625 -28.125 L 17.8125 -28.125 L 27.75 0 L 21.640625 0 Z M 14.1875 -23.3125 L 10.84375 -12.921875 L 17.4375 -12.921875 Z M 14.1875 -23.3125 "/></g></g></g><g fill="#c9caca" fill-opacity="1"><g transform="translate(151.917114, 253.889559)"><g><path d="M 17.4375 -27.90625 C 19.695312 -27.664062 21.523438 -26.804688 22.921875 -25.328125 C 24.316406 -23.847656 25.015625 -21.859375 25.015625 -19.359375 C 25.015625 -16.878906 24.296875 -14.898438 22.859375 -13.421875 C 21.421875 -11.941406 19.613281 -11.066406 17.4375 -10.796875 C 16.269531 -10.660156 14.910156 -10.59375 13.359375 -10.59375 L 9.25 -10.59375 L 9.25 0 L 3.625 0 L 3.625 -28.125 L 13.359375 -28.125 C 14.941406 -28.125 16.300781 -28.050781 17.4375 -27.90625 Z M 15.765625 -15.15625 C 17.992188 -15.476562 19.109375 -16.875 19.109375 -19.34375 C 19.109375 -21.820312 17.992188 -23.222656 15.765625 -23.546875 C 15.140625 -23.628906 14.3125 -23.671875 13.28125 -23.671875 L 9.25 -23.671875 L 9.25 -15.03125 L 13.28125 -15.03125 C 14.3125 -15.03125 15.140625 -15.070312 15.765625 -15.15625 Z M 15.765625 -15.15625 "/></g></g></g><g fill="#c9caca" fill-opacity="1"><g transform="translate(183.007671, 253.889559)"><g><path d="M 17.4375 -27.90625 C 19.695312 -27.664062 21.523438 -26.804688 22.921875 -25.328125 C 24.316406 -23.847656 25.015625 -21.859375 25.015625 -19.359375 C 25.015625 -16.878906 24.296875 -14.898438 22.859375 -13.421875 C 21.421875 -11.941406 19.613281 -11.066406 17.4375 -10.796875 C 16.269531 -10.660156 14.910156 -10.59375 13.359375 -10.59375 L 9.25 -10.59375 L 9.25 0 L 3.625 0 L 3.625 -28.125 L 13.359375 -28.125 C 14.941406 -28.125 16.300781 -28.050781 17.4375 -27.90625 Z M 15.765625 -15.15625 C 17.992188 -15.476562 19.109375 -16.875 19.109375 -19.34375 C 19.109375 -21.820312 17.992188 -23.222656 15.765625 -23.546875 C 15.140625 -23.628906 14.3125 -23.671875 13.28125 -23.671875 L 9.25 -23.671875 L 9.25 -15.03125 L 13.28125 -15.03125 C 14.3125 -15.03125 15.140625 -15.070312 15.765625 -15.15625 Z M 15.765625 -15.15625 "/></g></g></g><g fill="#c9caca" fill-opacity="1"><g transform="translate(214.098229, 253.889559)"><g><path d="M 23.921875 -4.6875 L 23.921875 0 L 3.625 0 L 3.625 -28.125 L 9.25 -28.125 L 9.25 -4.6875 Z M 23.921875 -4.6875 "/></g></g></g><g fill="#c9caca" fill-opacity="1"><g transform="translate(244.414616, 253.889559)"><g><path d="M 9.25 0 L 3.625 0 L 3.625 -28.125 L 9.25 -28.125 Z M 9.25 0 "/></g></g></g><g fill="#00b0dc" fill-opacity="1"><g transform="translate(94.498918, 288.581494)"><g><path d="M 9.761719 -15.40625 C 5.230469 -15.40625 1.402344 -11.644531 1.421875 -5.910156 C 1.402344 -2.035156 3.523438 0.304688 6.871094 0.304688 C 10.59375 0.304688 12.78125 -1.949219 13.832031 -4.769531 L 13.917969 -4.988281 L 13.085938 -4.988281 L 13 -4.769531 C 12.015625 -2.320312 10.109375 -0.414062 7.046875 -0.414062 C 4.355469 -0.414062 2.339844 -2.230469 2.339844 -5.972656 C 2.339844 -11.445312 5.953125 -14.683594 9.5625 -14.683594 C 12.429688 -14.683594 14.070312 -13.21875 14.070312 -10.527344 L 14.070312 -10.308594 L 14.902344 -10.308594 L 14.902344 -10.527344 C 14.96875 -13.285156 13.195312 -15.40625 9.761719 -15.40625 Z M 9.761719 -15.40625 "/></g></g></g><g fill="#00b0dc" fill-opacity="1"><g transform="translate(110.908733, 288.581494)"><g><path d="M 6.785156 -11.839844 C 4.3125 -11.839844 2.449219 -10.328125 1.96875 -8.273438 L 2.824219 -8.273438 C 3.414062 -10.285156 4.96875 -11.140625 6.71875 -11.140625 C 8.535156 -11.140625 9.191406 -10.242188 9.191406 -8.886719 C 9.191406 -8.511719 9.148438 -8.054688 8.996094 -7.308594 L 8.886719 -6.71875 C 4.574219 -7.046875 0.570312 -5.953125 0.570312 -2.496094 C 0.570312 -0.589844 1.992188 0.304688 3.632812 0.304688 C 5.121094 0.304688 6.476562 -0.261719 7.460938 -1.421875 L 8.183594 -2.539062 L 7.902344 0 L 8.753906 0 C 8.863281 -1.464844 8.972656 -2.320312 9.167969 -3.523438 L 9.847656 -7.351562 C 10 -8.121094 10.046875 -8.644531 10.046875 -9.039062 C 10.046875 -10.679688 9.015625 -11.839844 6.785156 -11.839844 Z M 8.511719 -4.53125 C 8.140625 -2.363281 6.195312 -0.394531 3.960938 -0.394531 C 2.449219 -0.394531 1.445312 -1.160156 1.445312 -2.558594 C 1.445312 -5.097656 4.378906 -6.433594 8.777344 -6.039062 Z M 8.511719 -4.53125 "/></g></g></g><g fill="#00b0dc" fill-opacity="1"><g transform="translate(122.899, 288.581494)"><g><path d="M 3.5 -10.789062 L 5.691406 -10.789062 L 5.800781 -11.445312 L 3.609375 -11.445312 L 4.046875 -13.898438 L 3.21875 -13.898438 L 2.78125 -11.445312 L 1.355469 -11.445312 L 1.226562 -10.789062 L 2.671875 -10.789062 L 1.292969 -3 C 1.117188 -2.144531 1.074219 -1.664062 1.074219 -1.246094 C 1.074219 -0.242188 1.640625 0.152344 2.734375 0.152344 C 3.171875 0.152344 3.5 0.132812 3.828125 0.0664062 L 3.9375 -0.570312 C 2.558594 -0.371094 1.925781 -0.589844 1.925781 -1.488281 C 1.925781 -1.792969 1.96875 -2.167969 2.121094 -2.953125 Z M 3.5 -10.789062 "/></g></g></g><g fill="#00b0dc" fill-opacity="1"><g transform="translate(129.638317, 288.581494)"><g><path d="M 3.523438 -14.574219 C 3.128906 -14.574219 2.800781 -14.269531 2.800781 -13.851562 C 2.800781 -13.546875 3.019531 -13.304688 3.328125 -13.304688 C 3.71875 -13.304688 4.070312 -13.613281 4.070312 -14.050781 C 4.070312 -14.335938 3.851562 -14.574219 3.523438 -14.574219 Z M 1.378906 0 L 3.414062 -11.535156 L 2.582031 -11.535156 L 0.546875 0 Z M 1.378906 0 "/></g></g></g><g fill="#00b0dc" fill-opacity="1"><g transform="translate(134.692949, 288.581494)"><g><path d="M 11.226562 -11.535156 L 10.265625 -11.535156 L 4.222656 -0.679688 L 2.035156 -11.535156 L 1.117188 -11.535156 L 3.566406 0 L 4.660156 0 Z M 11.226562 -11.535156 "/></g></g></g><g fill="#00b0dc" fill-opacity="1"><g transform="translate(146.24563, 288.581494)"><g><path d="M 6.785156 -11.839844 C 4.3125 -11.839844 2.449219 -10.328125 1.96875 -8.273438 L 2.824219 -8.273438 C 3.414062 -10.285156 4.96875 -11.140625 6.71875 -11.140625 C 8.535156 -11.140625 9.191406 -10.242188 9.191406 -8.886719 C 9.191406 -8.511719 9.148438 -8.054688 8.996094 -7.308594 L 8.886719 -6.71875 C 4.574219 -7.046875 0.570312 -5.953125 0.570312 -2.496094 C 0.570312 -0.589844 1.992188 0.304688 3.632812 0.304688 C 5.121094 0.304688 6.476562 -0.261719 7.460938 -1.421875 L 8.183594 -2.539062 L 7.902344 0 L 8.753906 0 C 8.863281 -1.464844 8.972656 -2.320312 9.167969 -3.523438 L 9.847656 -7.351562 C 10 -8.121094 10.046875 -8.644531 10.046875 -9.039062 C 10.046875 -10.679688 9.015625 -11.839844 6.785156 -11.839844 Z M 8.511719 -4.53125 C 8.140625 -2.363281 6.195312 -0.394531 3.960938 -0.394531 C 2.449219 -0.394531 1.445312 -1.160156 1.445312 -2.558594 C 1.445312 -5.097656 4.378906 -6.433594 8.777344 -6.039062 Z M 8.511719 -4.53125 "/></g></g></g><g fill="#00b0dc" fill-opacity="1"><g transform="translate(158.235896, 288.581494)"><g><path d="M 7.460938 -11.839844 C 6.105469 -11.839844 4.835938 -11.425781 3.742188 -10.328125 L 2.976562 -9.058594 L 3.414062 -11.535156 L 2.582031 -11.535156 L 0.570312 0 L 1.402344 0 L 2.515625 -6.390625 C 3.085938 -9.652344 5.121094 -11.117188 7.242188 -11.117188 C 9.191406 -11.140625 10 -10.046875 10 -8.558594 C 10 -7.921875 9.914062 -7.222656 9.738281 -6.238281 L 8.644531 0 L 9.476562 0 L 10.613281 -6.433594 C 10.8125 -7.550781 10.875 -8.03125 10.875 -8.730469 C 10.875 -10.65625 9.695312 -11.839844 7.460938 -11.839844 Z M 7.460938 -11.839844 "/></g></g></g><g fill="#00b0dc" fill-opacity="1"><g transform="translate(171.298221, 288.581494)"><g><path d="M 12.582031 -16.085938 L 11.753906 -16.085938 L 10.503906 -9.058594 L 10.089844 -10.328125 C 9.410156 -11.378906 8.449219 -11.839844 6.9375 -11.839844 C 2.800781 -11.839844 0.546875 -8.03125 0.546875 -4.378906 C 0.546875 -1.683594 2.058594 0.304688 4.683594 0.304688 C 6.257812 0.304688 7.308594 -0.0859375 8.425781 -1.136719 L 9.324219 -2.429688 L 8.90625 0 L 9.738281 0 Z M 9.847656 -5.339844 C 9.191406 -1.683594 7.089844 -0.394531 4.902344 -0.394531 C 2.648438 -0.394531 1.445312 -2.101562 1.445312 -4.421875 C 1.445312 -7.769531 3.4375 -11.140625 6.828125 -11.140625 C 9.609375 -11.140625 10.484375 -9.039062 10.046875 -6.457031 Z M 9.847656 -5.339844 "/></g></g></g><g fill="#00b0dc" fill-opacity="1"><g transform="translate(184.71061, 288.581494)"><g><path d="M 6.980469 -11.839844 C 2.496094 -11.839844 0.589844 -7.703125 0.589844 -4.726562 C 0.589844 -1.925781 2.101562 0.304688 5.273438 0.304688 C 9.761719 0.304688 11.664062 -3.828125 11.664062 -6.828125 C 11.664062 -9.609375 10.132812 -11.839844 6.980469 -11.839844 Z M 5.40625 -0.394531 C 3.0625 -0.394531 1.464844 -2.035156 1.464844 -4.726562 C 1.464844 -7.527344 3.261719 -11.140625 6.851562 -11.140625 C 9.191406 -11.140625 10.765625 -9.5 10.765625 -6.804688 C 10.765625 -4.003906 8.996094 -0.394531 5.40625 -0.394531 Z M 5.40625 -0.394531 "/></g></g></g><g fill="#00b0dc" fill-opacity="1"><g transform="translate(198.057367, 288.581494)"><g/></g></g><g fill="#00b0dc" fill-opacity="1"><g transform="translate(202.936978, 288.581494)"><g><path d="M 9.191406 -14.992188 C 8.511719 -15.078125 7.855469 -15.101562 7.089844 -15.101562 L 3.414062 -15.101562 L 0.765625 0 L 1.597656 0 L 2.757812 -6.609375 L 5.601562 -6.609375 C 6.367188 -6.609375 7.023438 -6.609375 7.746094 -6.695312 C 10.175781 -7.023438 12.277344 -8.644531 12.277344 -11.6875 C 12.277344 -13.722656 11.007812 -14.773438 9.191406 -14.992188 Z M 7.792969 -7.441406 C 7.132812 -7.351562 6.542969 -7.332031 5.777344 -7.332031 L 2.890625 -7.332031 L 4.113281 -14.355469 L 7.023438 -14.355469 C 7.792969 -14.355469 8.382812 -14.335938 8.972656 -14.246094 C 10.375 -14.050781 11.378906 -13.261719 11.378906 -11.597656 C 11.378906 -8.996094 9.761719 -7.726562 7.792969 -7.441406 Z M 7.792969 -7.441406 "/></g></g></g><g fill="#00b0dc" fill-opacity="1"><g transform="translate(215.21167, 288.581494)"><g><path d="M 10.613281 -5.535156 C 10.765625 -6.019531 10.875 -6.828125 10.875 -7.484375 C 10.875 -9.914062 9.671875 -11.839844 6.851562 -11.839844 C 2.605469 -11.839844 0.523438 -7.59375 0.523438 -4.421875 C 0.523438 -1.292969 2.277344 0.304688 4.640625 0.304688 C 6.871094 0.304688 8.972656 -0.851562 10.132812 -3.589844 L 9.277344 -3.589844 C 8.316406 -1.402344 6.566406 -0.394531 4.816406 -0.394531 C 3.042969 -0.394531 1.421875 -1.511719 1.421875 -4.441406 C 1.421875 -4.792969 1.445312 -5.144531 1.511719 -5.535156 Z M 6.742188 -11.140625 C 8.578125 -11.140625 10.023438 -10.15625 10.023438 -7.460938 C 10.023438 -7.070312 10 -6.675781 9.9375 -6.257812 L 1.640625 -6.257812 C 2.1875 -8.578125 3.785156 -11.140625 6.742188 -11.140625 Z M 6.742188 -11.140625 "/></g></g></g><g fill="#00b0dc" fill-opacity="1"><g transform="translate(227.836425, 288.581494)"><g><path d="M 5.644531 -11.839844 C 3.152344 -11.839844 1.640625 -10.328125 1.640625 -8.511719 C 1.640625 -6.675781 3.085938 -5.910156 4.597656 -5.492188 C 6.761719 -4.902344 7.636719 -4.265625 7.636719 -2.890625 C 7.636719 -1.402344 6.367188 -0.371094 4.488281 -0.371094 C 2.449219 -0.371094 1.160156 -1.160156 1.074219 -3.28125 L 0.21875 -3.28125 C 0.242188 -0.875 1.839844 0.351562 4.355469 0.351562 C 6.675781 0.351562 8.511719 -0.832031 8.511719 -2.976562 C 8.511719 -4.75 7.308594 -5.558594 5.054688 -6.195312 C 3.546875 -6.609375 2.515625 -7.242188 2.515625 -8.578125 C 2.515625 -9.871094 3.589844 -11.140625 5.558594 -11.140625 C 7.199219 -11.140625 8.316406 -10.351562 8.46875 -8.359375 L 9.324219 -8.359375 C 9.214844 -10.570312 7.945312 -11.839844 5.644531 -11.839844 Z M 5.644531 -11.839844 "/></g></g></g><g fill="#00b0dc" fill-opacity="1"><g transform="translate(238.885901, 288.581494)"><g><path d="M 5.644531 -11.839844 C 3.152344 -11.839844 1.640625 -10.328125 1.640625 -8.511719 C 1.640625 -6.675781 3.085938 -5.910156 4.597656 -5.492188 C 6.761719 -4.902344 7.636719 -4.265625 7.636719 -2.890625 C 7.636719 -1.402344 6.367188 -0.371094 4.488281 -0.371094 C 2.449219 -0.371094 1.160156 -1.160156 1.074219 -3.28125 L 0.21875 -3.28125 C 0.242188 -0.875 1.839844 0.351562 4.355469 0.351562 C 6.675781 0.351562 8.511719 -0.832031 8.511719 -2.976562 C 8.511719 -4.75 7.308594 -5.558594 5.054688 -6.195312 C 3.546875 -6.609375 2.515625 -7.242188 2.515625 -8.578125 C 2.515625 -9.871094 3.589844 -11.140625 5.558594 -11.140625 C 7.199219 -11.140625 8.316406 -10.351562 8.46875 -8.359375 L 9.324219 -8.359375 C 9.214844 -10.570312 7.945312 -11.839844 5.644531 -11.839844 Z M 5.644531 -11.839844 "/></g></g></g><g fill="#00b0dc" fill-opacity="1"><g transform="translate(249.935377, 288.581494)"><g><path d="M 6.980469 -11.839844 C 2.496094 -11.839844 0.589844 -7.703125 0.589844 -4.726562 C 0.589844 -1.925781 2.101562 0.304688 5.273438 0.304688 C 9.761719 0.304688 11.664062 -3.828125 11.664062 -6.828125 C 11.664062 -9.609375 10.132812 -11.839844 6.980469 -11.839844 Z M 5.40625 -0.394531 C 3.0625 -0.394531 1.464844 -2.035156 1.464844 -4.726562 C 1.464844 -7.527344 3.261719 -11.140625 6.851562 -11.140625 C 9.191406 -11.140625 10.765625 -9.5 10.765625 -6.804688 C 10.765625 -4.003906 8.996094 -0.394531 5.40625 -0.394531 Z M 5.40625 -0.394531 "/></g></g></g><g fill="#00b0dc" fill-opacity="1"><g transform="translate(263.28214, 288.581494)"><g><path d="M 6.785156 -11.839844 C 4.3125 -11.839844 2.449219 -10.328125 1.96875 -8.273438 L 2.824219 -8.273438 C 3.414062 -10.285156 4.96875 -11.140625 6.71875 -11.140625 C 8.535156 -11.140625 9.191406 -10.242188 9.191406 -8.886719 C 9.191406 -8.511719 9.148438 -8.054688 8.996094 -7.308594 L 8.886719 -6.71875 C 4.574219 -7.046875 0.570312 -5.953125 0.570312 -2.496094 C 0.570312 -0.589844 1.992188 0.304688 3.632812 0.304688 C 5.121094 0.304688 6.476562 -0.261719 7.460938 -1.421875 L 8.183594 -2.539062 L 7.902344 0 L 8.753906 0 C 8.863281 -1.464844 8.972656 -2.320312 9.167969 -3.523438 L 9.847656 -7.351562 C 10 -8.121094 10.046875 -8.644531 10.046875 -9.039062 C 10.046875 -10.679688 9.015625 -11.839844 6.785156 -11.839844 Z M 8.511719 -4.53125 C 8.140625 -2.363281 6.195312 -0.394531 3.960938 -0.394531 C 2.449219 -0.394531 1.445312 -1.160156 1.445312 -2.558594 C 1.445312 -5.097656 4.378906 -6.433594 8.777344 -6.039062 Z M 8.511719 -4.53125 "/></g></g></g><g fill="#00b0dc" fill-opacity="1"><g transform="translate(275.272412, 288.581494)"><g><path d="M 5.644531 -11.839844 C 3.152344 -11.839844 1.640625 -10.328125 1.640625 -8.511719 C 1.640625 -6.675781 3.085938 -5.910156 4.597656 -5.492188 C 6.761719 -4.902344 7.636719 -4.265625 7.636719 -2.890625 C 7.636719 -1.402344 6.367188 -0.371094 4.488281 -0.371094 C 2.449219 -0.371094 1.160156 -1.160156 1.074219 -3.28125 L 0.21875 -3.28125 C 0.242188 -0.875 1.839844 0.351562 4.355469 0.351562 C 6.675781 0.351562 8.511719 -0.832031 8.511719 -2.976562 C 8.511719 -4.75 7.308594 -5.558594 5.054688 -6.195312 C 3.546875 -6.609375 2.515625 -7.242188 2.515625 -8.578125 C 2.515625 -9.871094 3.589844 -11.140625 5.558594 -11.140625 C 7.199219 -11.140625 8.316406 -10.351562 8.46875 -8.359375 L 9.324219 -8.359375 C 9.214844 -10.570312 7.945312 -11.839844 5.644531 -11.839844 Z M 5.644531 -11.839844 "/></g></g></g><g fill="#00b0dc" fill-opacity="1"><g transform="translate(286.321888, 288.581494)"><g><path d="M 0.679688 -0.789062 L 0.699219 -0.941406 L -0.242188 -0.941406 L -2.035156 2.558594 L -1.246094 2.558594 Z M 0.679688 -0.789062 "/></g></g></g><g fill="#00b0dc" fill-opacity="1"><g transform="translate(61.580951, 318.581492)"><g><path d="M 9.191406 -14.992188 C 8.511719 -15.078125 7.855469 -15.101562 7.089844 -15.101562 L 3.414062 -15.101562 L 0.765625 0 L 1.597656 0 L 2.757812 -6.609375 L 5.601562 -6.609375 C 6.367188 -6.609375 7.023438 -6.609375 7.746094 -6.695312 C 10.175781 -7.023438 12.277344 -8.644531 12.277344 -11.6875 C 12.277344 -13.722656 11.007812 -14.773438 9.191406 -14.992188 Z M 7.792969 -7.441406 C 7.132812 -7.351562 6.542969 -7.332031 5.777344 -7.332031 L 2.890625 -7.332031 L 4.113281 -14.355469 L 7.023438 -14.355469 C 7.792969 -14.355469 8.382812 -14.335938 8.972656 -14.246094 C 10.375 -14.050781 11.378906 -13.261719 11.378906 -11.597656 C 11.378906 -8.996094 9.761719 -7.726562 7.792969 -7.441406 Z M 7.792969 -7.441406 "/></g></g></g><g fill="#00b0dc" fill-opacity="1"><g transform="translate(73.855639, 318.581492)"><g><path d="M 6.980469 -11.839844 C 2.496094 -11.839844 0.589844 -7.703125 0.589844 -4.726562 C 0.589844 -1.925781 2.101562 0.304688 5.273438 0.304688 C 9.761719 0.304688 11.664062 -3.828125 11.664062 -6.828125 C 11.664062 -9.609375 10.132812 -11.839844 6.980469 -11.839844 Z M 5.40625 -0.394531 C 3.0625 -0.394531 1.464844 -2.035156 1.464844 -4.726562 C 1.464844 -7.527344 3.261719 -11.140625 6.851562 -11.140625 C 9.191406 -11.140625 10.765625 -9.5 10.765625 -6.804688 C 10.765625 -4.003906 8.996094 -0.394531 5.40625 -0.394531 Z M 5.40625 -0.394531 "/></g></g></g><g fill="#00b0dc" fill-opacity="1"><g transform="translate(87.202397, 318.581492)"><g><path d="M 3.5 -10.789062 L 5.691406 -10.789062 L 5.800781 -11.445312 L 3.609375 -11.445312 L 4.046875 -13.898438 L 3.21875 -13.898438 L 2.78125 -11.445312 L 1.355469 -11.445312 L 1.226562 -10.789062 L 2.671875 -10.789062 L 1.292969 -3 C 1.117188 -2.144531 1.074219 -1.664062 1.074219 -1.246094 C 1.074219 -0.242188 1.640625 0.152344 2.734375 0.152344 C 3.171875 0.152344 3.5 0.132812 3.828125 0.0664062 L 3.9375 -0.570312 C 2.558594 -0.371094 1.925781 -0.589844 1.925781 -1.488281 C 1.925781 -1.792969 1.96875 -2.167969 2.121094 -2.953125 Z M 3.5 -10.789062 "/></g></g></g><g fill="#00b0dc" fill-opacity="1"><g transform="translate(93.941713, 318.581492)"><g><path d="M 10.613281 -5.535156 C 10.765625 -6.019531 10.875 -6.828125 10.875 -7.484375 C 10.875 -9.914062 9.671875 -11.839844 6.851562 -11.839844 C 2.605469 -11.839844 0.523438 -7.59375 0.523438 -4.421875 C 0.523438 -1.292969 2.277344 0.304688 4.640625 0.304688 C 6.871094 0.304688 8.972656 -0.851562 10.132812 -3.589844 L 9.277344 -3.589844 C 8.316406 -1.402344 6.566406 -0.394531 4.816406 -0.394531 C 3.042969 -0.394531 1.421875 -1.511719 1.421875 -4.441406 C 1.421875 -4.792969 1.445312 -5.144531 1.511719 -5.535156 Z M 6.742188 -11.140625 C 8.578125 -11.140625 10.023438 -10.15625 10.023438 -7.460938 C 10.023438 -7.070312 10 -6.675781 9.9375 -6.257812 L 1.640625 -6.257812 C 2.1875 -8.578125 3.785156 -11.140625 6.742188 -11.140625 Z M 6.742188 -11.140625 "/></g></g></g><g fill="#00b0dc" fill-opacity="1"><g transform="translate(106.566466, 318.581492)"><g><path d="M 7.460938 -11.839844 C 6.105469 -11.839844 4.835938 -11.425781 3.742188 -10.328125 L 2.976562 -9.058594 L 3.414062 -11.535156 L 2.582031 -11.535156 L 0.570312 0 L 1.402344 0 L 2.515625 -6.390625 C 3.085938 -9.652344 5.121094 -11.117188 7.242188 -11.117188 C 9.191406 -11.140625 10 -10.046875 10 -8.558594 C 10 -7.921875 9.914062 -7.222656 9.738281 -6.238281 L 8.644531 0 L 9.476562 0 L 10.613281 -6.433594 C 10.8125 -7.550781 10.875 -8.03125 10.875 -8.730469 C 10.875 -10.65625 9.695312 -11.839844 7.460938 -11.839844 Z M 7.460938 -11.839844 "/></g></g></g><g fill="#00b0dc" fill-opacity="1"><g transform="translate(119.628791, 318.581492)"><g><path d="M 7.023438 -11.839844 C 2.824219 -11.839844 0.570312 -8.140625 0.570312 -4.507812 C 0.570312 -1.421875 2.277344 0.304688 4.726562 0.304688 C 7.222656 0.304688 9.191406 -0.984375 10.21875 -3.5 L 9.367188 -3.5 C 8.492188 -1.488281 6.851562 -0.394531 4.878906 -0.394531 C 2.976562 -0.394531 1.445312 -1.683594 1.445312 -4.550781 C 1.445312 -8.03125 3.566406 -11.160156 6.851562 -11.160156 C 8.996094 -11.160156 10.066406 -9.914062 10.089844 -7.878906 L 10.941406 -7.878906 C 10.984375 -10.242188 9.585938 -11.839844 7.023438 -11.839844 Z M 7.023438 -11.839844 "/></g></g></g><g fill="#00b0dc" fill-opacity="1"><g transform="translate(132.122265, 318.581492)"><g><path d="M 3.523438 -14.574219 C 3.128906 -14.574219 2.800781 -14.269531 2.800781 -13.851562 C 2.800781 -13.546875 3.019531 -13.304688 3.328125 -13.304688 C 3.71875 -13.304688 4.070312 -13.613281 4.070312 -14.050781 C 4.070312 -14.335938 3.851562 -14.574219 3.523438 -14.574219 Z M 1.378906 0 L 3.414062 -11.535156 L 2.582031 -11.535156 L 0.546875 0 Z M 1.378906 0 "/></g></g></g><g fill="#00b0dc" fill-opacity="1"><g transform="translate(137.176897, 318.581492)"><g><path d="M 6.785156 -11.839844 C 4.3125 -11.839844 2.449219 -10.328125 1.96875 -8.273438 L 2.824219 -8.273438 C 3.414062 -10.285156 4.96875 -11.140625 6.71875 -11.140625 C 8.535156 -11.140625 9.191406 -10.242188 9.191406 -8.886719 C 9.191406 -8.511719 9.148438 -8.054688 8.996094 -7.308594 L 8.886719 -6.71875 C 4.574219 -7.046875 0.570312 -5.953125 0.570312 -2.496094 C 0.570312 -0.589844 1.992188 0.304688 3.632812 0.304688 C 5.121094 0.304688 6.476562 -0.261719 7.460938 -1.421875 L 8.183594 -2.539062 L 7.902344 0 L 8.753906 0 C 8.863281 -1.464844 8.972656 -2.320312 9.167969 -3.523438 L 9.847656 -7.351562 C 10 -8.121094 10.046875 -8.644531 10.046875 -9.039062 C 10.046875 -10.679688 9.015625 -11.839844 6.785156 -11.839844 Z M 8.511719 -4.53125 C 8.140625 -2.363281 6.195312 -0.394531 3.960938 -0.394531 C 2.449219 -0.394531 1.445312 -1.160156 1.445312 -2.558594 C 1.445312 -5.097656 4.378906 -6.433594 8.777344 -6.039062 Z M 8.511719 -4.53125 "/></g></g></g><g fill="#00b0dc" fill-opacity="1"><g transform="translate(149.167163, 318.581492)"><g><path d="M 4.15625 -16.085938 L 3.328125 -16.085938 L 0.984375 -2.78125 C 0.742188 -1.464844 0.699219 -1.160156 0.699219 -0.898438 C 0.699219 -0.109375 1.160156 0.109375 1.792969 0.109375 C 2.058594 0.109375 2.339844 0.109375 2.605469 0.0429688 L 2.734375 -0.613281 C 1.882812 -0.503906 1.574219 -0.632812 1.574219 -1.203125 C 1.574219 -1.421875 1.597656 -1.664062 1.816406 -2.800781 Z M 4.15625 -16.085938 "/></g></g></g><g fill="#00b0dc" fill-opacity="1"><g transform="translate(154.484345, 318.581492)"><g><path d="M 3.523438 -14.574219 C 3.128906 -14.574219 2.800781 -14.269531 2.800781 -13.851562 C 2.800781 -13.546875 3.019531 -13.304688 3.328125 -13.304688 C 3.71875 -13.304688 4.070312 -13.613281 4.070312 -14.050781 C 4.070312 -14.335938 3.851562 -14.574219 3.523438 -14.574219 Z M 1.378906 0 L 3.414062 -11.535156 L 2.582031 -11.535156 L 0.546875 0 Z M 1.378906 0 "/></g></g></g><g fill="#00b0dc" fill-opacity="1"><g transform="translate(159.538983, 318.581492)"><g><path d="M 10.242188 -10.746094 L 10.351562 -11.445312 L 2.011719 -11.445312 L 1.902344 -10.722656 L 9.148438 -10.722656 L -0.394531 -0.65625 L -0.503906 0 L 8.46875 0 L 8.578125 -0.679688 L 0.632812 -0.679688 Z M 10.242188 -10.746094 "/></g></g></g><g fill="#00b0dc" fill-opacity="1"><g transform="translate(170.850998, 318.581492)"><g><path d="M 6.785156 -11.839844 C 4.3125 -11.839844 2.449219 -10.328125 1.96875 -8.273438 L 2.824219 -8.273438 C 3.414062 -10.285156 4.96875 -11.140625 6.71875 -11.140625 C 8.535156 -11.140625 9.191406 -10.242188 9.191406 -8.886719 C 9.191406 -8.511719 9.148438 -8.054688 8.996094 -7.308594 L 8.886719 -6.71875 C 4.574219 -7.046875 0.570312 -5.953125 0.570312 -2.496094 C 0.570312 -0.589844 1.992188 0.304688 3.632812 0.304688 C 5.121094 0.304688 6.476562 -0.261719 7.460938 -1.421875 L 8.183594 -2.539062 L 7.902344 0 L 8.753906 0 C 8.863281 -1.464844 8.972656 -2.320312 9.167969 -3.523438 L 9.847656 -7.351562 C 10 -8.121094 10.046875 -8.644531 10.046875 -9.039062 C 10.046875 -10.679688 9.015625 -11.839844 6.785156 -11.839844 Z M 8.511719 -4.53125 C 8.140625 -2.363281 6.195312 -0.394531 3.960938 -0.394531 C 2.449219 -0.394531 1.445312 -1.160156 1.445312 -2.558594 C 1.445312 -5.097656 4.378906 -6.433594 8.777344 -6.039062 Z M 8.511719 -4.53125 "/></g></g></g><g fill="#00b0dc" fill-opacity="1"><g transform="translate(182.841269, 318.581492)"><g><path d="M 7.460938 -11.839844 C 6.105469 -11.839844 4.835938 -11.425781 3.742188 -10.328125 L 2.976562 -9.058594 L 3.414062 -11.535156 L 2.582031 -11.535156 L 0.570312 0 L 1.402344 0 L 2.515625 -6.390625 C 3.085938 -9.652344 5.121094 -11.117188 7.242188 -11.117188 C 9.191406 -11.140625 10 -10.046875 10 -8.558594 C 10 -7.921875 9.914062 -7.222656 9.738281 -6.238281 L 8.644531 0 L 9.476562 0 L 10.613281 -6.433594 C 10.8125 -7.550781 10.875 -8.03125 10.875 -8.730469 C 10.875 -10.65625 9.695312 -11.839844 7.460938 -11.839844 Z M 7.460938 -11.839844 "/></g></g></g><g fill="#00b0dc" fill-opacity="1"><g transform="translate(195.903601, 318.581492)"><g><path d="M 12.582031 -16.085938 L 11.753906 -16.085938 L 10.503906 -9.058594 L 10.089844 -10.328125 C 9.410156 -11.378906 8.449219 -11.839844 6.9375 -11.839844 C 2.800781 -11.839844 0.546875 -8.03125 0.546875 -4.378906 C 0.546875 -1.683594 2.058594 0.304688 4.683594 0.304688 C 6.257812 0.304688 7.308594 -0.0859375 8.425781 -1.136719 L 9.324219 -2.429688 L 8.90625 0 L 9.738281 0 Z M 9.847656 -5.339844 C 9.191406 -1.683594 7.089844 -0.394531 4.902344 -0.394531 C 2.648438 -0.394531 1.445312 -2.101562 1.445312 -4.421875 C 1.445312 -7.769531 3.4375 -11.140625 6.828125 -11.140625 C 9.609375 -11.140625 10.484375 -9.039062 10.046875 -6.457031 Z M 9.847656 -5.339844 "/></g></g></g><g fill="#00b0dc" fill-opacity="1"><g transform="translate(209.315995, 318.581492)"><g><path d="M 6.980469 -11.839844 C 2.496094 -11.839844 0.589844 -7.703125 0.589844 -4.726562 C 0.589844 -1.925781 2.101562 0.304688 5.273438 0.304688 C 9.761719 0.304688 11.664062 -3.828125 11.664062 -6.828125 C 11.664062 -9.609375 10.132812 -11.839844 6.980469 -11.839844 Z M 5.40625 -0.394531 C 3.0625 -0.394531 1.464844 -2.035156 1.464844 -4.726562 C 1.464844 -7.527344 3.261719 -11.140625 6.851562 -11.140625 C 9.191406 -11.140625 10.765625 -9.5 10.765625 -6.804688 C 10.765625 -4.003906 8.996094 -0.394531 5.40625 -0.394531 Z M 5.40625 -0.394531 "/></g></g></g><g fill="#00b0dc" fill-opacity="1"><g transform="translate(222.662758, 318.581492)"><g/></g></g><g fill="#00b0dc" fill-opacity="1"><g transform="translate(227.54237, 318.581492)"><g><path d="M 14.09375 -15.101562 L 13.261719 -15.101562 L 10.722656 -0.765625 L 4.683594 -15.101562 L 3.414062 -15.101562 L 0.742188 0 L 1.574219 0 L 4.09375 -14.378906 L 10.132812 0 L 11.425781 0 Z M 14.09375 -15.101562 "/></g></g></g><g fill="#00b0dc" fill-opacity="1"><g transform="translate(242.39878, 318.581492)"><g><path d="M 10.613281 -5.535156 C 10.765625 -6.019531 10.875 -6.828125 10.875 -7.484375 C 10.875 -9.914062 9.671875 -11.839844 6.851562 -11.839844 C 2.605469 -11.839844 0.523438 -7.59375 0.523438 -4.421875 C 0.523438 -1.292969 2.277344 0.304688 4.640625 0.304688 C 6.871094 0.304688 8.972656 -0.851562 10.132812 -3.589844 L 9.277344 -3.589844 C 8.316406 -1.402344 6.566406 -0.394531 4.816406 -0.394531 C 3.042969 -0.394531 1.421875 -1.511719 1.421875 -4.441406 C 1.421875 -4.792969 1.445312 -5.144531 1.511719 -5.535156 Z M 6.742188 -11.140625 C 8.578125 -11.140625 10.023438 -10.15625 10.023438 -7.460938 C 10.023438 -7.070312 10 -6.675781 9.9375 -6.257812 L 1.640625 -6.257812 C 2.1875 -8.578125 3.785156 -11.140625 6.742188 -11.140625 Z M 6.742188 -11.140625 "/></g></g></g><g fill="#00b0dc" fill-opacity="1"><g transform="translate(255.023535, 318.581492)"><g><path d="M 11.773438 -11.597656 L 10.941406 -11.597656 L 10.503906 -9.105469 L 10.089844 -10.328125 C 9.410156 -11.378906 8.449219 -11.839844 6.9375 -11.839844 C 2.800781 -11.839844 0.546875 -8.03125 0.546875 -4.378906 C 0.546875 -1.683594 2.058594 0.304688 4.683594 0.304688 C 6.257812 0.304688 7.308594 -0.0859375 8.425781 -1.136719 L 9.324219 -2.386719 L 9.257812 -2.058594 C 9.105469 -1.160156 9.015625 -0.632812 8.863281 0.0859375 C 8.359375 2.605469 6.71875 4.046875 4.113281 4.046875 C 2.1875 4.046875 0.789062 3.261719 0.808594 1.203125 L 0.832031 0.917969 L -0.0234375 0.917969 L -0.0234375 1.203125 C -0.0664062 3.65625 1.640625 4.769531 3.9375 4.769531 C 7.199219 4.769531 9.105469 2.953125 9.695312 0.152344 C 9.847656 -0.570312 10 -1.464844 10.265625 -3.019531 Z M 4.902344 -0.394531 C 2.648438 -0.394531 1.445312 -2.101562 1.445312 -4.421875 C 1.445312 -7.769531 3.4375 -11.140625 6.828125 -11.140625 C 9.476562 -11.140625 10.394531 -9.234375 10.089844 -6.828125 L 9.761719 -4.902344 C 9.015625 -1.574219 7.003906 -0.394531 4.902344 -0.394531 Z M 4.902344 -0.394531 "/></g></g></g><g fill="#00b0dc" fill-opacity="1"><g transform="translate(268.41406, 318.581492)"><g><path d="M 7.59375 -12.691406 L 9.628906 -15.101562 L 8.730469 -15.101562 L 6.980469 -12.691406 Z M 6.980469 -11.839844 C 2.496094 -11.839844 0.589844 -7.703125 0.589844 -4.726562 C 0.589844 -1.925781 2.101562 0.304688 5.273438 0.304688 C 9.761719 0.304688 11.664062 -3.828125 11.664062 -6.828125 C 11.664062 -9.609375 10.132812 -11.839844 6.980469 -11.839844 Z M 5.40625 -0.394531 C 3.0625 -0.394531 1.464844 -2.035156 1.464844 -4.726562 C 1.464844 -7.527344 3.261719 -11.140625 6.851562 -11.140625 C 9.191406 -11.140625 10.765625 -9.5 10.765625 -6.804688 C 10.765625 -4.003906 8.996094 -0.394531 5.40625 -0.394531 Z M 5.40625 -0.394531 "/></g></g></g><g fill="#00b0dc" fill-opacity="1"><g transform="translate(281.760822, 318.581492)"><g><path d="M 7.023438 -11.839844 C 2.824219 -11.839844 0.570312 -8.140625 0.570312 -4.507812 C 0.570312 -1.421875 2.277344 0.304688 4.726562 0.304688 C 7.222656 0.304688 9.191406 -0.984375 10.21875 -3.5 L 9.367188 -3.5 C 8.492188 -1.488281 6.851562 -0.394531 4.878906 -0.394531 C 2.976562 -0.394531 1.445312 -1.683594 1.445312 -4.550781 C 1.445312 -8.03125 3.566406 -11.160156 6.851562 -11.160156 C 8.996094 -11.160156 10.066406 -9.914062 10.089844 -7.878906 L 10.941406 -7.878906 C 10.984375 -10.242188 9.585938 -11.839844 7.023438 -11.839844 Z M 7.023438 -11.839844 "/></g></g></g><g fill="#00b0dc" fill-opacity="1"><g transform="translate(294.254291, 318.581492)"><g><path d="M 3.523438 -14.574219 C 3.128906 -14.574219 2.800781 -14.269531 2.800781 -13.851562 C 2.800781 -13.546875 3.019531 -13.304688 3.328125 -13.304688 C 3.71875 -13.304688 4.070312 -13.613281 4.070312 -14.050781 C 4.070312 -14.335938 3.851562 -14.574219 3.523438 -14.574219 Z M 1.378906 0 L 3.414062 -11.535156 L 2.582031 -11.535156 L 0.546875 0 Z M 1.378906 0 "/></g></g></g><g fill="#00b0dc" fill-opacity="1"><g transform="translate(299.308917, 318.581492)"><g><path d="M 6.980469 -11.839844 C 2.496094 -11.839844 0.589844 -7.703125 0.589844 -4.726562 C 0.589844 -1.925781 2.101562 0.304688 5.273438 0.304688 C 9.761719 0.304688 11.664062 -3.828125 11.664062 -6.828125 C 11.664062 -9.609375 10.132812 -11.839844 6.980469 -11.839844 Z M 5.40625 -0.394531 C 3.0625 -0.394531 1.464844 -2.035156 1.464844 -4.726562 C 1.464844 -7.527344 3.261719 -11.140625 6.851562 -11.140625 C 9.191406 -11.140625 10.765625 -9.5 10.765625 -6.804688 C 10.765625 -4.003906 8.996094 -0.394531 5.40625 -0.394531 Z M 5.40625 -0.394531 "/></g></g></g><g fill="#00b0dc" fill-opacity="1"><g transform="translate(312.65568, 318.581492)"><g><path d="M 5.644531 -11.839844 C 3.152344 -11.839844 1.640625 -10.328125 1.640625 -8.511719 C 1.640625 -6.675781 3.085938 -5.910156 4.597656 -5.492188 C 6.761719 -4.902344 7.636719 -4.265625 7.636719 -2.890625 C 7.636719 -1.402344 6.367188 -0.371094 4.488281 -0.371094 C 2.449219 -0.371094 1.160156 -1.160156 1.074219 -3.28125 L 0.21875 -3.28125 C 0.242188 -0.875 1.839844 0.351562 4.355469 0.351562 C 6.675781 0.351562 8.511719 -0.832031 8.511719 -2.976562 C 8.511719 -4.75 7.308594 -5.558594 5.054688 -6.195312 C 3.546875 -6.609375 2.515625 -7.242188 2.515625 -8.578125 C 2.515625 -9.871094 3.589844 -11.140625 5.558594 -11.140625 C 7.199219 -11.140625 8.316406 -10.351562 8.46875 -8.359375 L 9.324219 -8.359375 C 9.214844 -10.570312 7.945312 -11.839844 5.644531 -11.839844 Z M 5.644531 -11.839844 "/></g></g></g></svg>